# xmcd CD database file
#
# Track frame offsets:
#	150
#	14645
#	37223
#	54907
#	69302
#	95309
#	120996
#	136171
#	155871
#	168007
#	194872
#
# Disc length: 2793 seconds
#
# Revision: 0
# Processed by: cddbd v1.5.2PL0 Copyright (c) Steve Scherf et al.
# Submitted via: CDex 1.51
#
DISCID=940ae70b
DTITLE=Nina Simone - Best of Nina Simone
DYEAR=2004
DGENRE=Blues
TTITLE0=Cotton Eyed Joe
TTITLE1=Porgy
TTITLE2=Forbidden Fruit
TTITLE3=Gin House Blues
TTITLE4=Truble in Mind
TTITLE5=Summertime
TTITLE6=The Other Woman
TTITLE7=Li'l Liza Jaane
TTITLE8=Work Song
TTITLE9=You Can Have Him
TTITLE10=Exactly Like You
EXTD=YEAR: 2004
EXTT0=
EXTT1=
EXTT2=
EXTT3=
EXTT4=
EXTT5=
EXTT6=
EXTT7=
EXTT8=
EXTT9=
EXTT10=
PLAYORDER=
